<svg aria-hidden="true" xmlns="http://www.w3.org/2000/svg" xmlns:xlink="http://www.w3.org/1999/xlink"><symbol viewBox="0 0 34 20" fill="none" id="icon-burger" xmlns="http://www.w3.org/2000/svg">
<path d="M2 18H32" stroke="currentColor" stroke-width="3" stroke-linecap="round"/>
<path d="M2 10H32" stroke="currentColor" stroke-width="3" stroke-linecap="round"/>
<path d="M2 2H32" stroke="currentColor" stroke-width="3" stroke-linecap="round"/>
</symbol><symbol viewBox="0 0 20 20" fill="none" id="icon-close" xmlns="http://www.w3.org/2000/svg">
<path d="M5 5L15 15M15 5L5 15" stroke="currentColor" stroke-width="5" stroke-linecap="round"/>
</symbol><symbol viewBox="0 0 24 24" fill="none" id="icon-facebook" xmlns="http://www.w3.org/2000/svg">
<path d="M12 2C6.49999 2 2 6.50803 2 12.0602C2 17.0803 5.65999 21.247 10.44 22V14.9719H7.89999V12.0602H10.44V9.84137C10.44 7.32129 11.93 5.93574 14.22 5.93574C15.31 5.93574 16.45 6.12651 16.45 6.12651V8.60643H15.19C13.95 8.60643 13.56 9.37952 13.56 10.1727V12.0602H16.34L15.89 14.9719H13.56V22C15.9164 21.6264 18.0622 20.4192 19.6099 18.5964C21.1576 16.7737 22.0053 14.4555 22 12.0602C22 6.50803 17.5 2 12 2Z" fill="currentColor"/>
</symbol><symbol viewBox="0 0 37 42" fill="none" id="icon-flag-logo" xmlns="http://www.w3.org/2000/svg">
<g clip-path="url(#dclip0_45_252)">
<path d="M2.625 0C4.07695 0 5.25 1.17305 5.25 2.625V3.9375L10.9102 2.52656C14.0355 1.74727 17.3332 2.1082 20.2207 3.55195C24.0187 5.45508 28.4895 5.45508 32.2875 3.55195L33.075 3.1582C34.7648 2.30508 36.75 3.53555 36.75 5.42227V8.38359L33.0832 9.7125C29.5723 10.9922 25.7004 10.8527 22.2879 9.33516L20.9672 8.74453C19.302 8.00625 17.5383 7.53867 15.75 7.3582V9.99961C17.1773 10.1719 18.5719 10.5492 19.9008 11.1398L21.2215 11.7305C25.2574 13.527 29.8348 13.6828 33.9855 12.1734L36.75 11.1809V16.2668L33.0832 17.5957C29.5723 18.8754 25.7004 18.7359 22.2879 17.2184L20.9672 16.6277C17.6695 15.1594 13.9945 14.782 10.459 15.5367L5.25 16.6605V19.343L11.0086 18.1043C13.9945 17.4645 17.1035 17.7844 19.9008 19.0312L21.2215 19.6219C25.2574 21.4184 29.8348 21.5742 33.9855 20.0648L36.75 19.0559V24.1418L33.0832 25.4707C29.5723 26.7504 25.7004 26.6109 22.2879 25.0934L20.9672 24.5027C17.6695 23.0344 13.9945 22.657 10.459 23.4117L5.25 24.5355V27.218L11.0086 25.9793C13.9945 25.3395 17.1035 25.6594 19.9008 26.9062L21.2215 27.4969C25.2574 29.2934 29.8348 29.4492 33.9855 27.9398L36.75 26.9309V29.6789C36.75 30.7699 36.0691 31.7543 35.0438 32.1398L32.1973 33.2062C28.4074 34.6254 24.191 34.4039 20.5734 32.5992C17.4645 31.0406 13.9043 30.6551 10.5246 31.5L5.25 32.8125V39.375C5.25 40.827 4.07695 42 2.625 42C1.17305 42 0 40.827 0 39.375V2.625C0 1.17305 1.17305 0 2.625 0ZM9.1875 7.875C9.1875 7.5269 9.04922 7.19306 8.80308 6.94692C8.55694 6.70078 8.2231 6.5625 7.875 6.5625C7.5269 6.5625 7.19306 6.70078 6.94692 6.94692C6.70078 7.19306 6.5625 7.5269 6.5625 7.875C6.5625 8.2231 6.70078 8.55694 6.94692 8.80308C7.19306 9.04922 7.5269 9.1875 7.875 9.1875C8.2231 9.1875 8.55694 9.04922 8.80308 8.80308C9.04922 8.55694 9.1875 8.2231 9.1875 7.875ZM11.8125 7.875C12.1606 7.875 12.4944 7.73672 12.7406 7.49058C12.9867 7.24444 13.125 6.9106 13.125 6.5625C13.125 6.2144 12.9867 5.88056 12.7406 5.63442C12.4944 5.38828 12.1606 5.25 11.8125 5.25C11.4644 5.25 11.1306 5.38828 10.8844 5.63442C10.6383 5.88056 10.5 6.2144 10.5 6.5625C10.5 6.9106 10.6383 7.24444 10.8844 7.49058C11.1306 7.73672 11.4644 7.875 11.8125 7.875ZM9.1875 11.8125C9.1875 11.4644 9.04922 11.1306 8.80308 10.8844C8.55694 10.6383 8.2231 10.5 7.875 10.5C7.5269 10.5 7.19306 10.6383 6.94692 10.8844C6.70078 11.1306 6.5625 11.4644 6.5625 11.8125C6.5625 12.1606 6.70078 12.4944 6.94692 12.7406C7.19306 12.9867 7.5269 13.125 7.875 13.125C8.2231 13.125 8.55694 12.9867 8.80308 12.7406C9.04922 12.4944 9.1875 12.1606 9.1875 11.8125ZM11.8125 11.8125C12.1606 11.8125 12.4944 11.6742 12.7406 11.4281C12.9867 11.1819 13.125 10.8481 13.125 10.5C13.125 10.1519 12.9867 9.81806 12.7406 9.57192C12.4944 9.32578 12.1606 9.1875 11.8125 9.1875C11.4644 9.1875 11.1306 9.32578 10.8844 9.57192C10.6383 9.81806 10.5 10.1519 10.5 10.5C10.5 10.8481 10.6383 11.1819 10.8844 11.4281C11.1306 11.6742 11.4644 11.8125 11.8125 11.8125Z" fill="currentColor"/>
</g>
<defs>
<clipPath id="dclip0_45_252">
<rect width="36.75" height="42" fill="currentColor"/>
</clipPath>
</defs>
</symbol><symbol viewBox="0 0 24 24" fill="none" id="icon-instagram" xmlns="http://www.w3.org/2000/svg">
<path d="M13.028 2C14.153 2.003 14.7239 2.009 15.2169 2.023L15.4109 2.03C15.6349 2.038 15.8559 2.048 16.1229 2.06C17.1868 2.11 17.9128 2.27799 18.5497 2.52499C19.2097 2.77898 19.7657 3.12297 20.3216 3.67796C20.8303 4.17768 21.2238 4.7824 21.4746 5.44992C21.7216 6.0869 21.8896 6.81288 21.9396 7.87786C21.9516 8.14385 21.9616 8.36485 21.9696 8.58984L21.9756 8.78384C21.9906 9.27582 21.9966 9.84681 21.9986 10.9718L21.9996 11.7178V13.0277C22.002 13.7571 21.9943 14.4865 21.9766 15.2157L21.9706 15.4097C21.9626 15.6347 21.9526 15.8557 21.9406 16.1217C21.8906 17.1866 21.7206 17.9116 21.4746 18.5496C21.2238 19.2171 20.8303 19.8218 20.3216 20.3216C19.8219 20.8302 19.2172 21.2237 18.5497 21.4745C17.9128 21.7215 17.1868 21.8895 16.1229 21.9395L15.4109 21.9695L15.2169 21.9755C14.7239 21.9895 14.153 21.9965 13.028 21.9985L12.282 21.9995H10.9731C10.2434 22.0021 9.51371 21.9944 8.78423 21.9765L8.59024 21.9705C8.35286 21.9615 8.11553 21.9512 7.87827 21.9395C6.81433 21.8895 6.08836 21.7215 5.45039 21.4745C4.78326 21.2236 4.1789 20.8301 3.67948 20.3216C3.17045 19.8219 2.77664 19.2172 2.52554 18.5496C2.27855 17.9126 2.11056 17.1866 2.06057 16.1217L2.03057 15.4097L2.02557 15.2157C2.00713 14.4865 1.9988 13.7571 2.00057 13.0277V10.9718C1.9978 10.2424 2.00513 9.51302 2.02257 8.78384L2.02957 8.58984C2.03757 8.36485 2.04757 8.14385 2.05957 7.87786C2.10956 6.81288 2.27755 6.0879 2.52454 5.44992C2.77622 4.78213 3.17073 4.17738 3.68048 3.67796C4.17961 3.16952 4.78362 2.77605 5.45039 2.52499C6.08836 2.27799 6.81333 2.11 7.87827 2.06C8.14426 2.048 8.36625 2.038 8.59024 2.03L8.78423 2.024C9.51338 2.00623 10.2427 1.99857 10.9721 2.001L13.028 2ZM12.0001 6.99988C10.674 6.99988 9.40234 7.52665 8.46471 8.46431C7.52707 9.40197 7.00032 10.6737 7.00032 11.9998C7.00032 13.3258 7.52707 14.5975 8.46471 15.5352C9.40234 16.4729 10.674 16.9996 12.0001 16.9996C13.3261 16.9996 14.5978 16.4729 15.5354 15.5352C16.4731 14.5975 16.9998 13.3258 16.9998 11.9998C16.9998 10.6737 16.4731 9.40197 15.5354 8.46431C14.5978 7.52665 13.3261 6.99988 12.0001 6.99988ZM12.0001 8.99983C12.394 8.99976 12.7841 9.0773 13.1481 9.228C13.5121 9.3787 13.8428 9.59961 14.1214 9.87814C14.4 10.1567 14.6211 10.4873 14.7719 10.8513C14.9227 11.2152 15.0003 11.6053 15.0004 11.9993C15.0005 12.3932 14.923 12.7833 14.7723 13.1473C14.6216 13.5113 14.4006 13.8421 14.1221 14.1207C13.8436 14.3993 13.513 14.6203 13.149 14.7711C12.7851 14.922 12.395 14.9996 12.0011 14.9997C11.2055 14.9997 10.4424 14.6836 9.87985 14.121C9.31727 13.5584 9.00122 12.7954 9.00122 11.9998C9.00122 11.2041 9.31727 10.4411 9.87985 9.87849C10.4424 9.31589 11.2055 8.99983 12.0011 8.99983M17.2508 5.49992C16.9193 5.49992 16.6014 5.63161 16.367 5.86602C16.1326 6.10044 16.0009 6.41837 16.0009 6.74989C16.0009 7.0814 16.1326 7.39933 16.367 7.63375C16.6014 7.86816 16.9193 7.99986 17.2508 7.99986C17.5823 7.99986 17.9002 7.86816 18.1346 7.63375C18.369 7.39933 18.5007 7.0814 18.5007 6.74989C18.5007 6.41837 18.369 6.10044 18.1346 5.86602C17.9002 5.63161 17.5823 5.49992 17.2508 5.49992Z" fill="currentColor"/>
</symbol><symbol viewBox="0 0 25 25" fill="none" id="icon-login" xmlns="http://www.w3.org/2000/svg">
<path d="M12.5 14.4531C15.3046 14.4531 17.5781 12.1796 17.5781 9.375C17.5781 6.57043 15.3046 4.29688 12.5 4.29688C9.69543 4.29688 7.42188 6.57043 7.42188 9.375C7.42188 12.1796 9.69543 14.4531 12.5 14.4531Z" stroke="currentColor" stroke-width="3" stroke-linecap="round" stroke-linejoin="round"/>
<path d="M4.29688 22.2656C4.29688 18.3594 7.42188 14.4531 12.5 14.4531C17.5781 14.4531 20.7031 18.3594 20.7031 22.2656" stroke="currentColor" stroke-width="3" stroke-linecap="round" stroke-linejoin="round"/>
</symbol><symbol viewBox="0 0 56 59" fill="none" id="icon-next" xmlns="http://www.w3.org/2000/svg">
<path d="M53.5 29.5C53.5 43.9013 42.0417 55.5 28 55.5C13.9583 55.5 2.5 43.9013 2.5 29.5C2.5 15.0987 13.9583 3.5 28 3.5C42.0417 3.5 53.5 15.0987 53.5 29.5Z" stroke="currentColor" stroke-width="5"/>
<path d="M33.5068 31.9365L17.0762 25.8086V20.1201L38.1699 29.1777V33.0352L33.5068 31.9365ZM17.0762 37.21L33.5557 30.96L38.1699 29.9834V33.8164L17.0762 42.8984V37.21Z" fill="currentColor"/>
</symbol><symbol viewBox="0 0 24 24" fill="none" id="icon-phone" xmlns="http://www.w3.org/2000/svg">
<path d="M13.5253 4.30594C13.5508 4.21075 13.5947 4.12152 13.6547 4.04334C13.7147 3.96515 13.7894 3.89954 13.8748 3.85027C13.9601 3.80099 14.0543 3.76901 14.152 3.75615C14.2496 3.74328 14.3489 3.7498 14.4441 3.77531C15.8344 4.13808 17.103 4.86492 18.119 5.88097C19.1351 6.89703 19.8619 8.16557 20.2247 9.55594C20.2502 9.65111 20.2567 9.75037 20.2439 9.84805C20.231 9.94574 20.199 10.0399 20.1497 10.1253C20.1005 10.2106 20.0349 10.2854 19.9567 10.3453C19.8785 10.4053 19.7893 10.4492 19.6941 10.4747C19.6307 10.4914 19.5655 10.4999 19.5 10.5C19.3349 10.5001 19.1743 10.4456 19.0433 10.3451C18.9122 10.2445 18.8181 10.1036 18.7753 9.94406C18.4796 8.80888 17.8865 7.77311 17.0571 6.94354C16.2277 6.11397 15.192 5.52063 14.0569 5.22469C13.9616 5.19933 13.8723 5.15544 13.794 5.09552C13.7157 5.03561 13.65 4.96085 13.6006 4.87552C13.5513 4.79019 13.5192 4.69596 13.5063 4.59822C13.4933 4.50049 13.4998 4.40117 13.5253 4.30594ZM13.3069 8.22469C14.5997 8.56969 15.4303 9.40125 15.7753 10.6941C15.8181 10.8536 15.9122 10.9945 16.0433 11.0951C16.1743 11.1956 16.3349 11.2501 16.5 11.25C16.5655 11.2499 16.6307 11.2414 16.6941 11.2247C16.7893 11.1992 16.8785 11.1553 16.9567 11.0953C17.0349 11.0354 17.1005 10.9606 17.1497 10.8753C17.199 10.7899 17.231 10.6957 17.2439 10.5981C17.2567 10.5004 17.2502 10.4011 17.2247 10.3059C16.7447 8.50969 15.4903 7.25531 13.6941 6.77531C13.5019 6.72397 13.2971 6.75108 13.1249 6.85068C12.9527 6.95028 12.8271 7.11421 12.7758 7.30641C12.7244 7.49861 12.7516 7.70333 12.8512 7.87554C12.9508 8.04775 13.1147 8.17334 13.3069 8.22469ZM20.0972 15.6056L15.6806 13.6266L15.6684 13.6209C15.4392 13.5229 15.189 13.4835 14.9407 13.5064C14.6924 13.5294 14.4537 13.6138 14.2463 13.7522C14.2218 13.7683 14.1983 13.7858 14.1759 13.8047L11.8941 15.75C10.4484 15.0478 8.95595 13.5666 8.25376 12.1397L10.2019 9.82312C10.2206 9.79969 10.2384 9.77625 10.2553 9.75094C10.3907 9.54403 10.4729 9.30686 10.4945 9.06054C10.5161 8.81421 10.4764 8.56637 10.3791 8.33906V8.32781L8.39438 3.90375C8.2657 3.60681 8.04444 3.35945 7.76362 3.1986C7.4828 3.03775 7.1575 2.97203 6.83626 3.01125C5.56592 3.17841 4.39986 3.80228 3.55588 4.76634C2.7119 5.7304 2.24771 6.96871 2.25001 8.25C2.25001 15.6938 8.30626 21.75 15.75 21.75C17.0313 21.7523 18.2696 21.2881 19.2337 20.4441C20.1977 19.6001 20.8216 18.4341 20.9888 17.1637C21.0281 16.8426 20.9625 16.5174 20.8018 16.2366C20.6411 15.9558 20.394 15.7345 20.0972 15.6056Z" fill="currentColor"/>
</symbol><symbol viewBox="0 0 56 59" fill="none" id="icon-prev" xmlns="http://www.w3.org/2000/svg">
<path d="M53.5 29.5C53.5 43.9013 42.0417 55.5 28 55.5C13.9583 55.5 2.5 43.9013 2.5 29.5C2.5 15.0987 13.9583 3.5 28 3.5C42.0417 3.5 53.5 15.0987 53.5 29.5Z" stroke="currentColor" stroke-width="5"/>
<path d="M19.957 30.96L36.0947 37.1367V42.9229L15.5137 33.8408V30.0078L19.957 30.96ZM36.0947 25.9062L19.957 32.1807L15.5137 33.0352V29.2021L36.0947 20.1445V25.9062Z" fill="currentColor"/>
</symbol></svg>