<svg width="1440" height="5783" viewBox="0 0 1440 5783" fill="none" xmlns="http://www.w3.org/2000/svg">
<line x1="135.5" y1="5783" x2="135.5" y2="11.9653" stroke="#DFDFDF"/>
<line x1="294.625" y1="5778" x2="294.625" y2="11.9976" stroke="#DFDFDF"/>
<line x1="1440" y1="171.501" x2="2.1646e-10" y2="171.501" stroke="#DFDFDF"/>
<line x1="1440" y1="324.501" x2="2.1646e-10" y2="324.501" stroke="#DFDFDF"/>
<line x1="1440" y1="483.501" x2="2.1646e-10" y2="483.501" stroke="#DFDFDF"/>
<line x1="1420" y1="642.501" x2="-20" y2="642.501" stroke="#DFDFDF"/>
<line x1="494.688" y1="5778" x2="494.688" y2="-0.00292969" stroke="#DFDFDF"/>
<line x1="696.875" y1="5773" x2="696.875" y2="11.9995" stroke="#DFDFDF"/>
<line x1="894.625" y1="5759.01" x2="894.625" y2="-0.00878906" stroke="#DFDFDF"/>
<line x1="1099.5" y1="5747" x2="1099.5" y2="11.9995" stroke="#DFDFDF"/>
<line x1="1301.62" y1="5773" x2="1301.62" y2="11.999" stroke="#DFDFDF"/>
<line x1="1440" y1="800.501" x2="2.1646e-10" y2="800.501" stroke="#DFDFDF"/>
<line x1="1440" y1="959.501" x2="2.1646e-10" y2="959.501" stroke="#DFDFDF"/>
<line x1="1440" y1="1277.5" x2="2.1646e-10" y2="1277.5" stroke="#DFDFDF"/>
<line x1="1440" y1="1436.5" x2="2.1646e-10" y2="1436.5" stroke="#DFDFDF"/>
<line x1="1440" y1="1595.5" x2="2.1646e-10" y2="1595.5" stroke="#DFDFDF"/>
<line x1="1440" y1="1754.5" x2="2.1646e-10" y2="1754.5" stroke="#DFDFDF"/>
<line x1="1440" y1="1913.5" x2="2.1646e-10" y2="1913.5" stroke="#DFDFDF"/>
<line x1="1440" y1="2072.5" x2="2.1646e-10" y2="2072.5" stroke="#DFDFDF"/>
<line x1="1440" y1="2231.5" x2="2.1646e-10" y2="2231.5" stroke="#DFDFDF"/>
<line x1="1440" y1="2390.5" x2="2.1646e-10" y2="2390.5" stroke="#DFDFDF"/>
<line x1="1440" y1="2549.5" x2="2.1646e-10" y2="2549.5" stroke="#DFDFDF"/>
<line x1="1440" y1="2708.5" x2="2.1646e-10" y2="2708.5" stroke="#DFDFDF"/>
<line x1="1440" y1="2867.5" x2="2.1646e-10" y2="2867.5" stroke="#DFDFDF"/>
<line x1="1440" y1="3026.5" x2="2.1646e-10" y2="3026.5" stroke="#DFDFDF"/>
<line x1="1440" y1="3185.5" x2="2.1646e-10" y2="3185.5" stroke="#DFDFDF"/>
<line x1="1440" y1="3344.5" x2="2.1646e-10" y2="3344.5" stroke="#DFDFDF"/>
<line x1="1440" y1="3503.5" x2="2.1646e-10" y2="3503.5" stroke="#DFDFDF"/>
<line x1="1440" y1="3662.5" x2="2.1646e-10" y2="3662.5" stroke="#DFDFDF"/>
<line x1="1440" y1="3821.5" x2="2.1646e-10" y2="3821.5" stroke="#DFDFDF"/>
<line x1="1440" y1="3980.5" x2="2.1646e-10" y2="3980.5" stroke="#DFDFDF"/>
<line x1="1440" y1="4139.5" x2="2.1646e-10" y2="4139.5" stroke="#DFDFDF"/>
<line x1="1440" y1="4298.5" x2="2.1646e-10" y2="4298.5" stroke="#DFDFDF"/>
<line x1="1440" y1="4457.5" x2="2.1646e-10" y2="4457.5" stroke="#DFDFDF"/>
<line x1="1440" y1="4616.5" x2="2.1646e-10" y2="4616.5" stroke="#DFDFDF"/>
<line x1="1440" y1="4775.5" x2="2.1646e-10" y2="4775.5" stroke="#DFDFDF"/>
<line x1="1440" y1="4934.5" x2="2.1646e-10" y2="4934.5" stroke="#DFDFDF"/>
<line x1="1440" y1="1118.5" x2="2.1646e-10" y2="1118.5" stroke="#DFDFDF"/>
<line x1="1440" y1="5093.5" x2="2.1646e-10" y2="5093.5" stroke="#DFDFDF"/>
<line x1="1440" y1="5252.5" x2="2.1646e-10" y2="5252.5" stroke="#DFDFDF"/>
<line x1="1440" y1="5411.5" x2="2.1646e-10" y2="5411.5" stroke="#DFDFDF"/>
<line x1="1440" y1="5570.5" x2="2.1646e-10" y2="5570.5" stroke="#DFDFDF"/>
<line x1="1440" y1="5729.5" x2="2.1646e-10" y2="5729.5" stroke="#DFDFDF"/>
</svg>
